<svg viewBox="0 0 128 128" fill="none" xmlns="http://www.w3.org/2000/svg">
    <path d="M10.1574 22.0124C10.257 22.1619 10.3467 22.3213 10.4563 22.4508C16.6935 29.8338 21.8646 38.1833 27.3943 46.3733C29.5863 49.6214 31.4196 53.2182 33.5817 56.4863C35.7238 59.7045 38.2048 62.6537 40.1576 65.5332C39.7989 64.3077 39.0317 62.6537 38.8026 60.9599C37.6867 52.6105 34.319 45.0681 29.3272 39.06C25.0031 33.8491 20.101 29.4652 15.1292 25.3801C13.555 24.0848 11.891 22.959 10.257 21.8132C10.2172 21.8729 10.1873 21.9427 10.1474 22.0025" />
    <path fill-rule="evenodd" clip-rule="evenodd" d="M34.6975 32.1354C34.4883 30.9896 34.2691 29.8537 34.0299 28.7079V28.7179C33.6912 24.8222 33.1531 20.9164 32.5852 16.9908C32.4286 15.9236 32.2925 14.8548 32.1543 13.7694C31.9583 12.2302 31.758 10.6578 31.4892 9.01001C32.6519 11.874 33.6165 14.5986 34.5719 17.2971C34.73 17.7435 34.8878 18.1893 35.0462 18.6348C35.8984 21.0195 36.6937 23.4233 37.4877 25.823C37.8448 26.9024 38.2017 27.981 38.5633 29.0567C39.8313 32.8475 40.6666 36.7056 40.8375 40.53C40.84 40.5149 40.8425 40.4999 40.845 40.4849L40.8397 40.5795C40.9282 42.6287 40.8256 44.6681 40.4963 46.6822C40.4758 46.807 40.4565 46.9316 40.4383 47.056C40.4428 48.6626 40.7618 50.2644 41.0943 51.9337L41.104 51.9828C41.1797 52.3555 41.2494 52.7341 41.3197 53.1153C41.379 53.4373 41.4387 53.7612 41.5026 54.0851C44.1927 67.9045 43.3558 110.748 42.5587 114.265L41.6932 116.173L41.6992 116.06C41.6934 116.106 41.6876 116.152 41.6819 116.198C41.3793 116.22 41.0965 116.24 40.8043 116.261C40.4424 116.287 40.066 116.314 39.6195 116.347C40.307 111.993 41.4328 79.9903 41.3033 75.3373C30.0146 84.4739 17.4705 86.8054 4.53784 85.3108C4.64086 85.2593 4.73915 85.2047 4.83522 85.1512C4.98073 85.0703 5.12115 84.9922 5.26518 84.9322C11.0398 82.5756 16.6813 79.6479 22.3476 76.7074L22.7412 76.5031C27.9522 73.8129 33.452 72.6771 39.1612 73.524C39.6341 73.5983 40.0979 73.7597 40.5619 73.9211C40.7821 73.9977 41.0023 74.0744 41.2236 74.1417C41.5723 72.6771 41.4926 72.4778 40.4564 72.2387C33.3723 70.5548 27.1152 66.6591 20.9877 62.3249C16.514 59.1466 12.3393 55.6793 8.26421 52.192C8.20941 52.1422 8.15461 52.0874 8.07366 52.0065C7.9927 51.9255 7.8856 51.8184 7.72618 51.664C7.95566 51.6403 8.16343 51.611 8.35683 51.5837C8.73443 51.5304 9.05728 51.4848 9.38013 51.5045C15.6572 51.8831 21.7748 53.5869 27.5038 57.124C31.8579 59.8141 36.0127 63.0423 39.3505 67.6953C39.8543 68.3976 40.3114 69.1643 40.8068 69.9953C40.958 70.2489 41.1127 70.5085 41.2734 70.774C41.2934 70.3655 40.6059 57.4727 39.6394 51.3949C39.3903 49.8207 38.9619 48.2863 38.4338 46.7818C36.9687 42.6363 36.0552 38.4088 35.1324 34.138C34.9884 33.4715 34.8441 32.8039 34.6975 32.1354Z" />
    <path d="M41.6819 116.198L41.6919 116.198L41.6932 116.173L41.6819 116.198Z" />
    <path d="M47.172 70.4054C50.7588 69.8374 54.4852 67.765 57.006 65.852C58.8791 64.4272 60.7921 62.5441 62.1173 60.4219C62.1472 52.4311 62.2767 44.1813 62.3863 37.3662C62.466 32.3845 62.5357 28.0902 62.5357 25.5694C62.5357 21.3748 58.5702 17.1303 50.998 17.1303C48.9853 17.1303 47.2517 17.6484 45.5778 18.1366C45.4084 18.1864 45.239 18.2362 45.0597 18.2861C45.3088 19.3023 45.8468 22.6003 46.3848 33.062C46.614 38.4822 47.0125 58.1901 47.172 70.3854" />
    <path d="M94.5785 85.9983C84.8541 73.8229 76.8733 62.5043 76.7936 62.3847L76.7238 62.295V61.3086L76.8434 61.199C78.7664 59.4853 80.789 57.7018 82.8713 55.8586C97.2687 43.1451 115.183 27.333 115.183 22.0124C115.183 19.5215 113.798 17.9772 106.893 17.9772C105.897 17.9772 104.203 18.0669 103.526 18.0967C102.031 26.2071 95.4752 34.0384 66.3518 62.295C63.7712 65.2144 60.3936 67.6455 57.6835 69.1699C55.0332 70.6644 51.1773 72.3383 47.2118 73.2051C47.2317 75.2476 47.2417 76.9713 47.2417 78.2068C47.2417 107.958 45.9464 115.52 45.4981 117.224C46.4745 117.383 47.4111 117.573 48.3178 117.742C50.4898 118.171 52.5423 118.569 54.535 118.569C60.2342 118.569 62.6653 115.789 62.6653 109.283C62.6653 104.6 62.5158 100.027 62.3664 95.5932C62.2269 91.3985 62.0973 87.443 62.0973 83.5971V68.8411L64.379 69.1898C66.3717 69.688 69.5202 74.7794 73.8842 81.8136C82.8016 96.2209 96.2823 118.001 110.729 118.001C117.913 118.001 122.496 116.616 123.543 116.258V115.739C117.256 112.212 107.511 102.199 94.5685 85.9883" />
    <style>
        path { fill: #000; }
        @media (prefers-color-scheme: dark) {
            path { fill: #FFF; }
        }
    </style>
</svg>
